<svg xmlns="http://www.w3.org/2000/svg" viewBox="0 0 900 450" width="100%" height="100%">
  <defs>
    <linearGradient id="apisBg" x1="0%" y1="0%" x2="100%" y2="100%">
      <stop offset="0%" stop-color="#040a16" />
      <stop offset="50%" stop-color="#060f22" />
      <stop offset="100%" stop-color="#0b0826" />
    </linearGradient>
    <filter id="apisCyanGlow" x="-20%" y="-20%" width="140%" height="140%">
      <feGaussianBlur stdDeviation="3" result="blur" />
      <feMerge><feMergeNode in="blur" /><feMergeNode in="SourceGraphic" /></feMerge>
    </filter>
    <filter id="apisPurpleGlow" x="-20%" y="-20%" width="140%" height="140%">
      <feGaussianBlur stdDeviation="4" result="blur" />
      <feMerge><feMergeNode in="blur" /><feMergeNode in="SourceGraphic" /></feMerge>
    </filter>
    <linearGradient id="apisGlass" x1="0%" y1="0%" x2="100%" y2="100%">
      <stop offset="0%" stop-color="#08142c" stop-opacity="0.8" />
      <stop offset="100%" stop-color="#040918" stop-opacity="0.95" />
    </linearGradient>
    <linearGradient id="apisBorder" x1="0%" y1="0%" x2="100%" y2="100%">
      <stop offset="0%" stop-color="#00F2FF" stop-opacity="0.9" />
      <stop offset="50%" stop-color="#5533FF" stop-opacity="0.4" />
      <stop offset="100%" stop-color="#BC13FE" stop-opacity="0.9" />
    </linearGradient>
    <linearGradient id="apisBtn" x1="0%" y1="0%" x2="100%" y2="0%">
      <stop offset="0%" stop-color="#00F2FF" />
      <stop offset="100%" stop-color="#BC13FE" />
    </linearGradient>
  </defs>

  <rect width="900" height="450" fill="url(#apisBg)" rx="10" />
  <g stroke="#00F2FF" stroke-width="0.5" opacity="0.07">
    <line x1="45" y1="0" x2="45" y2="450" /><line x1="135" y1="0" x2="135" y2="450" />
    <line x1="225" y1="0" x2="225" y2="450" /><line x1="315" y1="0" x2="315" y2="450" />
    <line x1="405" y1="0" x2="405" y2="450" /><line x1="495" y1="0" x2="495" y2="450" />
    <line x1="585" y1="0" x2="585" y2="450" /><line x1="675" y1="0" x2="675" y2="450" />
    <line x1="765" y1="0" x2="765" y2="450" /><line x1="855" y1="0" x2="855" y2="450" />
    <line x1="0" y1="45" x2="900" y2="45" /><line x1="0" y1="135" x2="900" y2="135" />
    <line x1="0" y1="225" x2="900" y2="225" /><line x1="0" y1="315" x2="900" y2="315" />
    <line x1="0" y1="405" x2="900" y2="405" />
  </g>
  <rect x="14" y="14" width="872" height="422" rx="8" fill="none" stroke="url(#apisBorder)" stroke-width="1.2" filter="url(#apisCyanGlow)" />
  <path d="M 14 34 L 14 14 L 34 14" fill="none" stroke="#00F2FF" stroke-width="2.5" />
  <path d="M 886 34 L 886 14 L 866 14" fill="none" stroke="#00F2FF" stroke-width="2.5" />
  <path d="M 14 416 L 14 436 L 34 436" fill="none" stroke="#BC13FE" stroke-width="2.5" />
  <path d="M 886 416 L 886 436 L 866 436" fill="none" stroke="#BC13FE" stroke-width="2.5" />

  <g transform="translate(45, 50)">
    <rect x="0" y="0" width="200" height="120" rx="8" fill="url(#apisGlass)" stroke="#122448" stroke-width="1" />
    <text x="16" y="24" font-family="Courier New, monospace" font-size="9" fill="#00F2FF" letter-spacing="1.5">MEMORY ENGINE</text>
    <text x="16" y="54" font-family="Segoe UI, sans-serif" font-size="22" font-weight="900" fill="#FFFFFF">GEMINI</text>
    <text x="16" y="74" font-family="Courier New, monospace" font-size="8.5" fill="#00FF88">ACADEMIC AI CORE</text>
    <g transform="translate(16, 86)" fill="#BC13FE">
      <rect x="0" y="0" width="4.5" height="18" rx="1"><animate attributeName="height" values="8;22;6;20;8" dur="1.2s" repeatCount="indefinite" /><animate attributeName="y" values="10;0;12;0;10" dur="1.2s" repeatCount="indefinite" /></rect>
      <rect x="8" y="0" width="4.5" height="18" rx="1"><animate attributeName="height" values="20;6;24;10;20" dur="1.4s" repeatCount="indefinite" /><animate attributeName="y" values="0;12;0;8;0" dur="1.4s" repeatCount="indefinite" /></rect>
      <rect x="16" y="0" width="4.5" height="18" rx="1"><animate attributeName="height" values="10;24;8;20;10" dur="1.1s" repeatCount="indefinite" /><animate attributeName="y" values="8;0;10;0;8" dur="1.1s" repeatCount="indefinite" /></rect>
      <rect x="24" y="0" width="4.5" height="18" rx="1"><animate attributeName="height" values="24;10;18;6;24" dur="1.3s" repeatCount="indefinite" /><animate attributeName="y" values="0;8;0;12;0" dur="1.3s" repeatCount="indefinite" /></rect>
      <rect x="32" y="0" width="4.5" height="18" rx="1"><animate attributeName="height" values="14;26;10;20;14" dur="1.5s" repeatCount="indefinite" /><animate attributeName="y" values="4;0;8;0;4" dur="1.5s" repeatCount="indefinite" /></rect>
    </g>
  </g>

  <g transform="translate(175, 180)">
    <rect x="0" y="0" width="150" height="95" rx="8" fill="url(#apisGlass)" stroke="#122448" stroke-width="1" />
    <text x="16" y="20" font-family="Courier New, monospace" font-size="8.5" fill="#8FA0C5">STACK</text>
    <text x="16" y="46" font-family="Segoe UI, sans-serif" font-size="15" font-weight="bold" fill="#FFFFFF">VITE</text>
    <text x="16" y="68" font-family="Courier New, monospace" font-size="9" fill="#00F2FF">REACT + FIREBASE</text>
    <circle cx="120" cy="55" r="5" fill="#00F2FF" filter="url(#apisCyanGlow)">
      <animate attributeName="opacity" values="1;0.35;1" dur="1.8s" repeatCount="indefinite" />
    </circle>
  </g>

  <g transform="translate(45, 290)">
    <rect x="0" y="0" width="220" height="100" rx="8" fill="url(#apisGlass)" stroke="#122448" stroke-width="1" />
    <text x="16" y="20" font-family="Courier New, monospace" font-size="8.5" fill="#8FA0C5">MISSION STATUS</text>
    <text x="16" y="52" font-family="Segoe UI, sans-serif" font-size="15" font-weight="bold" fill="#FFFFFF">Active Build</text>
    <text x="16" y="74" font-family="Courier New, monospace" font-size="8.5" fill="#00FF88">AMBIENT INTELLIGENCE</text>
    <text x="16" y="90" font-family="Courier New, monospace" font-size="8" fill="#8FA0C5">ACADEMIC MEMORY SYSTEM</text>
  </g>

  <path d="M 310 225 L 440 225" stroke="#00F2FF" stroke-width="1" stroke-dasharray="3,3" opacity="0.5">
    <animate attributeName="stroke-dashoffset" values="0;-12" dur="1s" repeatCount="indefinite" />
  </path>
  <circle cx="440" cy="225" r="3.5" fill="#00F2FF" filter="url(#apisCyanGlow)" />

  <g transform="translate(440, 50)">
    <rect x="0" y="0" width="415" height="340" rx="10" fill="url(#apisGlass)" stroke="url(#apisBorder)" stroke-width="1.5" filter="url(#apisCyanGlow)" />
    <g transform="translate(252, 20)">
      <rect x="0" y="0" width="148" height="26" rx="13" fill="#091b38" stroke="#00FF88" stroke-width="1" />
      <circle cx="14" cy="13" r="3.5" fill="#00FF88" filter="url(#apisCyanGlow)">
        <animate attributeName="opacity" values="1;0.3;1" dur="1.8s" repeatCount="indefinite" />
      </circle>
      <text x="26" y="17" font-family="Segoe UI, sans-serif" font-size="8.5" font-weight="bold" fill="#00FF88" letter-spacing="0.35">ACTIVE MISSION</text>
    </g>
    <text x="28" y="66" font-family="Segoe UI, sans-serif" font-size="28" font-weight="900" fill="#FFFFFF" letter-spacing="2">APIS</text>
    <text x="28" y="92" font-family="Segoe UI, sans-serif" font-size="14" font-weight="800" fill="#00F2FF" letter-spacing="1.2">ACADEMIC INTELLIGENCE</text>
    <text x="28" y="125" font-family="Segoe UI, sans-serif" font-size="12" fill="#8FA0C5">Ambient-intelligence academic memory</text>
    <text x="28" y="143" font-family="Segoe UI, sans-serif" font-size="12" fill="#8FA0C5">system for students and researchers.</text>
    <g transform="translate(28, 175)">
      <circle cx="4" cy="4" r="3.5" fill="#00F2FF" />
      <text x="18" y="8" font-family="Segoe UI, sans-serif" font-size="11.5" fill="#CBE0FF">Gemini AI academic reasoning core</text>
      <circle cx="4" cy="30" r="3.5" fill="#00F2FF" />
      <text x="18" y="34" font-family="Segoe UI, sans-serif" font-size="11.5" fill="#CBE0FF">Vite + React + Firebase full stack</text>
      <polygon points="4,52 8,58 0,58" fill="#00FF88" />
      <text x="18" y="57" font-family="Segoe UI, sans-serif" font-size="11.5" fill="#CBE0FF">Persistent academic memory graphs</text>
    </g>
    <g transform="translate(28, 268)">
      <rect x="0" y="0" width="105" height="34" rx="17" fill="url(#apisBtn)" />
      <text x="52.5" y="21" font-family="Segoe UI, sans-serif" font-size="10" font-weight="bold" fill="#050a18" text-anchor="middle" letter-spacing="1">EXPLORE</text>
    </g>
    <text x="155" y="290" font-family="Courier New, monospace" font-size="9.5" font-weight="bold" fill="#00F2FF" letter-spacing="1">GEMINI AI</text>
    <text x="270" y="290" font-family="Courier New, monospace" font-size="9.5" font-weight="bold" fill="#BC13FE" letter-spacing="1">FULL STACK</text>
  </g>
  <text x="45" y="420" font-family="Courier New, monospace" font-size="8.5" fill="#40557d" letter-spacing="1">APIS V1.0 2026 // ACADEMIC INTELLIGENCE LAB</text>
</svg>
