<svg xmlns="http://www.w3.org/2000/svg" viewBox="0 0 900 300" width="100%">
<defs>

  <linearGradient id="bg" x1="0" y1="0" x2="1" y2="0">
    <stop offset="0%"   stop-color="#040a16"/>
    <stop offset="45%"  stop-color="#050c1e"/>
    <stop offset="75%"  stop-color="#090620"/>
    <stop offset="100%" stop-color="#0d0828"/>
  </linearGradient>

  <!-- Cyan cluster glow -->
  <filter id="cGlow" x="-25%" y="-25%" width="150%" height="150%">
    <feGaussianBlur in="SourceGraphic" stdDeviation="1.8" result="b"/>
    <feMerge><feMergeNode in="b"/><feMergeNode in="SourceGraphic"/></feMerge>
  </filter>

  <!-- Purple cluster glow -->
  <filter id="pGlow" x="-25%" y="-25%" width="150%" height="150%">
    <feGaussianBlur in="SourceGraphic" stdDeviation="1.8" result="b"/>
    <feMerge><feMergeNode in="b"/><feMergeNode in="SourceGraphic"/></feMerge>
  </filter>

  <!-- Bar glow -->
  <filter id="barGlow" x="-2%" y="-80%" width="104%" height="260%">
    <feGaussianBlur in="SourceGraphic" stdDeviation="5" result="b"/>
    <feMerge><feMergeNode in="b"/><feMergeNode in="SourceGraphic"/></feMerge>
  </filter>

</defs>

<!-- ═══ BACKGROUND ═══ -->
<rect width="900" height="300" fill="url(#bg)"/>

<!-- ═══ GRID ═══ -->
<g stroke="#00F2FF" stroke-width="0.5" opacity="0.13">
  <!-- Vertical lines -->
  <line x1="40"  y1="0" x2="40"  y2="300"/>
  <line x1="80"  y1="0" x2="80"  y2="300"/>
  <line x1="120" y1="0" x2="120" y2="300"/>
  <line x1="160" y1="0" x2="160" y2="300"/>
  <line x1="200" y1="0" x2="200" y2="300"/>
  <line x1="240" y1="0" x2="240" y2="300"/>
  <line x1="280" y1="0" x2="280" y2="300"/>
  <line x1="320" y1="0" x2="320" y2="300"/>
  <line x1="360" y1="0" x2="360" y2="300"/>
  <line x1="400" y1="0" x2="400" y2="300"/>
  <line x1="440" y1="0" x2="440" y2="300"/>
  <line x1="480" y1="0" x2="480" y2="300"/>
  <line x1="520" y1="0" x2="520" y2="300"/>
  <line x1="560" y1="0" x2="560" y2="300"/>
  <line x1="600" y1="0" x2="600" y2="300"/>
  <line x1="640" y1="0" x2="640" y2="300"/>
  <line x1="680" y1="0" x2="680" y2="300"/>
  <line x1="720" y1="0" x2="720" y2="300"/>
  <line x1="760" y1="0" x2="760" y2="300"/>
  <line x1="800" y1="0" x2="800" y2="300"/>
  <line x1="840" y1="0" x2="840" y2="300"/>
  <line x1="880" y1="0" x2="880" y2="300"/>
  <!-- Horizontal lines -->
  <line x1="0" y1="40"  x2="900" y2="40"/>
  <line x1="0" y1="80"  x2="900" y2="80"/>
  <line x1="0" y1="120" x2="900" y2="120"/>
  <line x1="0" y1="160" x2="900" y2="160"/>
  <line x1="0" y1="200" x2="900" y2="200"/>
  <line x1="0" y1="240" x2="900" y2="240"/>
  <line x1="0" y1="280" x2="900" y2="280"/>
</g>

<!-- ═══ LEFT WIREFRAME CLUSTER — CYAN, FLOATING ═══ -->
<g filter="url(#cGlow)">
  <animateTransform attributeName="transform" type="translate"
    values="0,0; 5,-4; 0,0; -5,4; 0,0"
    keyTimes="0;0.25;0.5;0.75;1"
    dur="12s" repeatCount="indefinite"
    calcMode="spline"
    keySplines="0.4 0 0.6 1; 0.4 0 0.6 1; 0.4 0 0.6 1; 0.4 0 0.6 1"/>

  <!-- Edges -->
  <g stroke="#00F2FF" stroke-width="0.7" fill="none" opacity="0.68">
    <line x1="18"  y1="248" x2="38"  y2="128"/>
    <line x1="18"  y1="248" x2="72"  y2="192"/>
    <line x1="18"  y1="248" x2="42"  y2="272"/>
    <line x1="18"  y1="248" x2="10"  y2="90"/>
    <line x1="38"  y1="128" x2="58"  y2="70"/>
    <line x1="38"  y1="128" x2="72"  y2="192"/>
    <line x1="38"  y1="128" x2="118" y2="150"/>
    <line x1="38"  y1="128" x2="10"  y2="90"/>
    <line x1="58"  y1="70"  x2="92"  y2="38"/>
    <line x1="58"  y1="70"  x2="118" y2="150"/>
    <line x1="58"  y1="70"  x2="152" y2="80"/>
    <line x1="72"  y1="192" x2="118" y2="150"/>
    <line x1="72"  y1="192" x2="132" y2="212"/>
    <line x1="72"  y1="192" x2="102" y2="272"/>
    <line x1="92"  y1="38"  x2="152" y2="80"/>
    <line x1="92"  y1="38"  x2="208" y2="58"/>
    <line x1="118" y1="150" x2="132" y2="212"/>
    <line x1="118" y1="150" x2="152" y2="80"/>
    <line x1="118" y1="150" x2="176" y2="138"/>
    <line x1="132" y1="212" x2="168" y2="268"/>
    <line x1="132" y1="212" x2="192" y2="202"/>
    <line x1="132" y1="212" x2="42"  y2="272"/>
    <line x1="132" y1="212" x2="102" y2="272"/>
    <line x1="152" y1="80"  x2="176" y2="138"/>
    <line x1="152" y1="80"  x2="208" y2="58"/>
    <line x1="152" y1="80"  x2="252" y2="100"/>
    <line x1="168" y1="268" x2="192" y2="202"/>
    <line x1="168" y1="268" x2="102" y2="272"/>
    <line x1="168" y1="268" x2="182" y2="274"/>
    <line x1="176" y1="138" x2="192" y2="202"/>
    <line x1="176" y1="138" x2="224" y2="156"/>
    <line x1="176" y1="138" x2="252" y2="100"/>
    <line x1="192" y1="202" x2="224" y2="156"/>
    <line x1="192" y1="202" x2="238" y2="242"/>
    <line x1="192" y1="202" x2="182" y2="274"/>
    <line x1="192" y1="202" x2="248" y2="188"/>
    <line x1="208" y1="58"  x2="224" y2="156"/>
    <line x1="208" y1="58"  x2="252" y2="100"/>
    <line x1="224" y1="156" x2="238" y2="242"/>
    <line x1="224" y1="156" x2="252" y2="100"/>
    <line x1="224" y1="156" x2="248" y2="188"/>
    <line x1="238" y1="242" x2="102" y2="272"/>
    <line x1="238" y1="242" x2="182" y2="274"/>
    <line x1="252" y1="100" x2="248" y2="188"/>
    <line x1="42"  y1="272" x2="102" y2="272"/>
    <line x1="102" y1="272" x2="182" y2="274"/>
    <!-- Long antenna lines extending toward center -->
    <line x1="252" y1="100" x2="345" y2="52"  opacity="0.3"/>
    <line x1="248" y1="188" x2="348" y2="218" opacity="0.25"/>
    <line x1="10"  y1="90"  x2="0"   y2="82"  opacity="0.4"/>
  </g>

  <!-- Nodes — varied sizes for key vertices -->
  <g fill="#00F2FF">
    <circle cx="18"  cy="248" r="3"/>
    <circle cx="38"  cy="128" r="2"/>
    <circle cx="58"  cy="70"  r="2"/>
    <circle cx="72"  cy="192" r="2"/>
    <circle cx="92"  cy="38"  r="3"/>
    <circle cx="118" cy="150" r="2"/>
    <circle cx="132" cy="212" r="2"/>
    <circle cx="152" cy="80"  r="3"/>
    <circle cx="168" cy="268" r="2"/>
    <circle cx="176" cy="138" r="2"/>
    <circle cx="192" cy="202" r="2"/>
    <circle cx="208" cy="58"  r="2"/>
    <circle cx="224" cy="156" r="2"/>
    <circle cx="238" cy="242" r="2"/>
    <circle cx="252" cy="100" r="3"/>
    <circle cx="42"  cy="272" r="2"/>
    <circle cx="102" cy="272" r="2"/>
    <circle cx="182" cy="274" r="2"/>
    <circle cx="10"  cy="90"  r="2"/>
    <circle cx="248" cy="188" r="2"/>
    <!-- Antenna tip nodes -->
    <circle cx="345" cy="52"  r="1.5" opacity="0.5"/>
    <circle cx="348" cy="218" r="1.5" opacity="0.4"/>
  </g>
</g>

<!-- ═══ RIGHT WIREFRAME CLUSTER — PURPLE, FLOATING ═══ -->
<g filter="url(#pGlow)">
  <animateTransform attributeName="transform" type="translate"
    values="0,0; -5,4; 0,0; 5,-4; 0,0"
    keyTimes="0;0.25;0.5;0.75;1"
    dur="17s" repeatCount="indefinite"
    calcMode="spline"
    keySplines="0.4 0 0.6 1; 0.4 0 0.6 1; 0.4 0 0.6 1; 0.4 0 0.6 1"/>

  <!-- Edges -->
  <g stroke="#9933CC" stroke-width="0.7" fill="none" opacity="0.72">
    <line x1="660" y1="42"  x2="698" y2="22"/>
    <line x1="660" y1="42"  x2="668" y2="82"/>
    <line x1="660" y1="42"  x2="698" y2="112"/>
    <line x1="660" y1="42"  x2="720" y2="30"/>
    <line x1="698" y1="22"  x2="742" y2="58"/>
    <line x1="698" y1="22"  x2="772" y2="28"/>
    <line x1="698" y1="22"  x2="720" y2="30"/>
    <line x1="742" y1="58"  x2="772" y2="28"/>
    <line x1="742" y1="58"  x2="802" y2="78"/>
    <line x1="742" y1="58"  x2="762" y2="98"/>
    <line x1="772" y1="28"  x2="802" y2="78"/>
    <line x1="772" y1="28"  x2="822" y2="38"/>
    <line x1="772" y1="28"  x2="720" y2="30"/>
    <line x1="802" y1="78"  x2="822" y2="38"/>
    <line x1="802" y1="78"  x2="852" y2="92"/>
    <line x1="802" y1="78"  x2="792" y2="128"/>
    <line x1="822" y1="38"  x2="852" y2="92"/>
    <line x1="822" y1="38"  x2="882" y2="58"/>
    <line x1="852" y1="92"  x2="882" y2="58"/>
    <line x1="852" y1="92"  x2="872" y2="152"/>
    <line x1="852" y1="92"  x2="792" y2="128"/>
    <line x1="872" y1="152" x2="842" y2="182"/>
    <line x1="872" y1="152" x2="802" y2="158"/>
    <line x1="872" y1="152" x2="882" y2="58"/>
    <line x1="842" y1="182" x2="802" y2="158"/>
    <line x1="842" y1="182" x2="752" y2="188"/>
    <line x1="842" y1="182" x2="792" y2="128"/>
    <line x1="802" y1="158" x2="752" y2="188"/>
    <line x1="802" y1="158" x2="792" y2="128"/>
    <line x1="802" y1="158" x2="722" y2="158"/>
    <line x1="752" y1="188" x2="722" y2="158"/>
    <line x1="752" y1="188" x2="698" y2="112"/>
    <line x1="792" y1="128" x2="762" y2="98"/>
    <line x1="792" y1="128" x2="852" y2="92"/>
    <line x1="762" y1="98"  x2="698" y2="112"/>
    <line x1="762" y1="98"  x2="720" y2="30"/>
    <line x1="698" y1="112" x2="668" y2="82"/>
    <line x1="698" y1="112" x2="722" y2="158"/>
    <line x1="668" y1="82"  x2="648" y2="158"/>
    <line x1="722" y1="158" x2="648" y2="158"/>
    <!-- Antenna lines toward center -->
    <line x1="648" y1="158" x2="555" y2="195" opacity="0.3"/>
    <line x1="660" y1="42"  x2="552" y2="38"  opacity="0.25"/>
    <line x1="882" y1="58"  x2="900" y2="48"  opacity="0.4"/>
  </g>

  <!-- Nodes -->
  <g fill="#BB55EE">
    <circle cx="660" cy="42"  r="3"/>
    <circle cx="698" cy="22"  r="2"/>
    <circle cx="742" cy="58"  r="2"/>
    <circle cx="772" cy="28"  r="3"/>
    <circle cx="802" cy="78"  r="2"/>
    <circle cx="822" cy="38"  r="2"/>
    <circle cx="852" cy="92"  r="2"/>
    <circle cx="872" cy="152" r="3"/>
    <circle cx="842" cy="182" r="2"/>
    <circle cx="802" cy="158" r="2"/>
    <circle cx="752" cy="188" r="2"/>
    <circle cx="792" cy="128" r="2"/>
    <circle cx="762" cy="98"  r="2.5"/>
    <circle cx="698" cy="112" r="2"/>
    <circle cx="668" cy="82"  r="2"/>
    <circle cx="882" cy="58"  r="2"/>
    <circle cx="722" cy="158" r="2"/>
    <circle cx="648" cy="158" r="2"/>
    <circle cx="720" cy="30"  r="2"/>
    <!-- Antenna tips -->
    <circle cx="555" cy="195" r="1.5" opacity="0.45"/>
    <circle cx="552" cy="38"  r="1.5" opacity="0.4"/>
  </g>
</g>

<!-- ═══ CENTER TEXT ═══ -->

<!-- AI SYSTEMS DEVELOPER -->
<text x="450" y="118"
      text-anchor="middle"
      font-family="'Courier New',Courier,monospace"
      font-size="9" fill="#00F2FF"
      letter-spacing="4.5" opacity="0.82">AI SYSTEMS DEVELOPER</text>

<!-- VIVEK SHARMA -->
<text x="450" y="160"
      text-anchor="middle"
      font-family="'Arial Black','Arial',sans-serif"
      font-size="42" font-weight="900"
      fill="#ffffff">VIVEK SHARMA</text>

<!-- BUILDING CINEMATIC INTELLIGENT INTERFACES -->
<text x="450" y="182"
      text-anchor="middle"
      font-family="'Courier New',Courier,monospace"
      font-size="8" fill="#8899cc"
      letter-spacing="4">BUILDING CINEMATIC INTELLIGENT INTERFACES</text>

<!-- ═══ CYAN BAR ═══ -->
<!-- Glow layer -->
<rect x="127" y="226" width="652" height="10" rx="1" fill="#00F2FF"
      filter="url(#barGlow)">
  <animate attributeName="opacity" values="0.55;0.28;0.55" dur="3.5s" repeatCount="indefinite"/>
</rect>
<!-- Solid bar -->
<rect x="127" y="226" width="652" height="10" rx="1" fill="#00F2FF">
  <animate attributeName="opacity" values="1;0.82;1" dur="3.5s" repeatCount="indefinite"/>
</rect>

</svg>
